<svg width="34" height="36" viewBox="0 0 34 36" fill="none" xmlns="http://www.w3.org/2000/svg">
<path d="M33.0136 10.5855C33.0134 9.98016 32.8839 9.44527 32.6221 8.9862C32.3649 8.53478 31.9798 8.15642 31.4632 7.85727C27.199 5.39852 22.9307 2.94728 18.6679 0.486019C17.5187 -0.177452 16.4044 -0.153265 15.2637 0.519732C13.5664 1.5207 5.06872 6.38921 2.53653 7.85589C1.4937 8.45959 0.986255 9.38348 0.986004 10.5844C0.984375 15.5291 0.986004 20.4736 0.984375 25.4185C0.984375 26.0105 1.10857 26.535 1.35885 26.9872C1.61614 27.4522 2.00665 27.841 2.53515 28.1469C5.06747 29.6136 13.5663 34.4817 15.2632 35.483C16.4044 36.1563 17.5187 36.1804 18.6683 35.5167C22.9312 33.0553 27.1998 30.6042 31.4646 28.1454C31.9931 27.8396 32.3836 27.4506 32.6409 26.9859C32.8908 26.5337 33.0152 26.0093 33.0152 25.4171C33.0152 25.4171 33.0152 15.5303 33.0136 10.5855Z" fill="#A179DC"/>
<path d="M17.0489 17.9531L1.35889 26.9871C1.61618 27.4521 2.00669 27.8409 2.53519 28.1468C5.06751 29.6135 13.5663 34.4816 15.2632 35.4829C16.4044 36.1562 17.5187 36.1803 18.6683 35.5166C22.9312 33.0552 27.1998 30.6041 31.4646 28.1453C31.9931 27.8395 32.3836 27.4505 32.6409 26.9858L17.0489 17.9531Z" fill="#280068"/>
<path d="M33.0136 10.5854C33.0134 9.98004 32.8839 9.44515 32.6221 8.98608L17.0488 17.9531L32.6409 26.9858C32.8908 26.5336 33.015 26.0091 33.0153 25.417C33.0153 25.417 33.0153 15.5302 33.0136 10.5854Z" fill="#390091"/>
<path d="M26.2863 14.5759V16.2645H27.9749V14.5759H28.8192V16.2645H30.5078V17.1088H28.8192V18.7974H30.5078V19.6417H28.8192V21.3303H27.9749V19.6417H26.2863V21.3303H25.442V19.6417H23.7534V18.7974H25.442V17.1088H23.7534V16.2645H25.442V14.5759H26.2863ZM27.9749 17.1088H26.2863V18.7974H27.9749V17.1088Z" fill="white"/>
<path d="M17.0832 6.09558C21.4876 6.09558 25.333 8.48758 27.3927 12.043L27.3726 12.0088L22.1906 14.9926C21.1696 13.2639 19.2979 12.0973 17.1508 12.0733L17.0832 12.0729C13.809 12.0729 11.1546 14.7272 11.1546 18.0014C11.1546 19.0721 11.44 20.0758 11.9365 20.9427C12.9584 22.7268 14.8795 23.9301 17.0832 23.9301C19.3006 23.9301 21.2326 22.7115 22.2493 20.9084L22.2246 20.9516L27.3988 23.9492C25.3618 27.4745 21.569 29.8591 17.2158 29.9067L17.0832 29.9074C12.6649 29.9074 8.80858 27.5007 6.75409 23.9264C5.75112 22.1815 5.17725 20.1586 5.17725 18.0014C5.17725 11.4261 10.5076 6.09558 17.0832 6.09558Z" fill="white"/>
</svg>
