<svg viewBox="0 0 800 800" fill="none" xmlns="http://www.w3.org/2000/svg">
<path d="M396.612 1.78839C194.011 1.78841 206.663 89.6484 206.663 89.6484L206.889 180.67H400.226V208H130.096C130.096 208 0.45166 193.297 0.45166 397.723C0.451646 602.149 113.608 594.9 113.608 594.9H181.141V500.038C181.141 500.038 177.5 386.882 292.49 386.882H484.246C484.246 386.882 591.982 388.623 591.982 282.76V107.717C591.982 107.717 608.339 1.78839 396.612 1.78839ZM290.006 62.9967C309.241 62.9967 324.788 78.5437 324.788 97.7794C324.788 117.015 309.241 132.562 290.006 132.562C270.77 132.562 255.223 117.015 255.223 97.7794C255.223 78.5437 270.77 62.9967 290.006 62.9967Z" fill="url(#paint0_linear_2_94)"/>
<path d="M402.366 795.707C604.967 795.707 592.315 707.847 592.315 707.847L592.089 616.825H398.752V589.496H668.882C668.882 589.496 798.526 604.199 798.526 399.773C798.526 195.346 685.37 202.596 685.37 202.596H617.837V297.457C617.837 297.457 621.478 410.614 506.488 410.614H314.732C314.732 410.614 206.996 408.872 206.996 514.736V689.778C206.996 689.778 190.639 795.707 402.366 795.707ZM508.972 734.499C489.737 734.499 474.19 718.952 474.19 699.716C474.19 680.481 489.737 664.934 508.972 664.934C528.208 664.934 543.755 680.481 543.755 699.716C543.755 718.952 528.208 734.499 508.972 734.499Z" fill="url(#paint1_linear_2_94)"/>
<defs>
<linearGradient id="paint0_linear_2_94" x1="7670.1" y1="7142.87" x2="47219.8" y2="46298" gradientUnits="userSpaceOnUse">
<stop stop-color="#387EB8"/>
<stop offset="1" stop-color="#366994"/>
</linearGradient>
<linearGradient id="paint1_linear_2_94" x1="11526.8" y1="12409" x2="53999" y2="52559.2" gradientUnits="userSpaceOnUse">
<stop stop-color="#FFE052"/>
<stop offset="1" stop-color="#FFC331"/>
</linearGradient>
</defs>
</svg>
