<svg width="48" height="48" viewBox="0 0 48 48" fill="none" xmlns="http://www.w3.org/2000/svg">
<path d="M24 3C12.4172 3 3 12.4172 3 24C3 35.5828 12.4172 45 24 45C35.5828 45 45 35.5828 45 24C45 12.4172 35.5828 3 24 3Z" fill="#FC471E"/>
<path fill-rule="evenodd" clip-rule="evenodd" d="M31.1454 11.5944C31.1228 11.7456 31.1111 11.9007 31.1111 12.0588C31.1111 13.6552 32.305 14.9493 33.7778 14.9493C35.2505 14.9493 36.4444 13.6552 36.4444 12.0588C36.4444 10.4625 35.2505 9.16837 33.7778 9.16837C33.1215 9.16837 32.5206 9.42532 32.0561 9.85146L25.131 8L22.6281 18.8519C19.2985 19.0894 16.304 20.1824 14.045 21.8325C13.4036 21.1507 12.5249 20.7302 11.5556 20.7302C9.59188 20.7302 8 22.4557 8 24.5842C8 26.0654 8.77095 27.3515 9.90164 27.9967C9.81994 28.4564 9.77778 28.9253 9.77778 29.4016C9.77778 35.2549 16.1453 40 24 40C31.8547 40 38.2222 35.2549 38.2222 29.4016C38.2222 28.9253 38.1801 28.4564 38.0984 27.9967C39.2291 27.3515 40 26.0654 40 24.5842C40 22.4557 38.4081 20.7302 36.4444 20.7302C35.4751 20.7302 34.5964 21.1507 33.955 21.8325C31.4939 20.0348 28.1598 18.8983 24.4705 18.8089L26.4245 10.3368L31.1454 11.5944ZM17.7778 30.3651C19.2505 30.3651 20.4444 29.071 20.4444 27.4747C20.4444 25.8783 19.2505 24.5842 17.7778 24.5842C16.305 24.5842 15.1111 25.8783 15.1111 27.4747C15.1111 29.071 16.305 30.3651 17.7778 30.3651ZM30.2222 30.3651C31.695 30.3651 32.8889 29.071 32.8889 27.4747C32.8889 25.8783 31.695 24.5842 30.2222 24.5842C28.7495 24.5842 27.5556 25.8783 27.5556 27.4747C27.5556 29.071 28.7495 30.3651 30.2222 30.3651ZM18.2708 33.4174C17.8624 33.1222 17.3105 33.2419 17.0382 33.6846C16.7659 34.1274 16.8762 34.7256 17.2847 35.0207C19.2191 36.4185 21.6095 37.1174 24 37.1174C26.3905 37.1174 28.7809 36.4185 30.7153 35.0207C31.1238 34.7256 31.2341 34.1274 30.9618 33.6846C30.6895 33.2419 30.1376 33.1222 29.7292 33.4174C28.0934 34.5994 26.0467 35.1905 24 35.1905C22.7862 35.1905 21.5725 34.9826 20.4444 34.5669C19.6703 34.2816 18.9366 33.8984 18.2708 33.4174Z" fill="white"/>
</svg>
