<svg viewBox="0 0 190 250" fill="none" xmlns="http://www.w3.org/2000/svg">
<g clip-path="url(#clip0_45_51)">
<path d="M20.0818 32.0874C20.0818 65.5853 40.8683 85.6841 82.4413 96.2624L126.48 106.488C165.94 115.656 189.897 138.223 189.897 174.894C190.249 190.762 184.965 206.277 175.452 218.971C175.452 182.299 156.427 162.553 110.979 150.564L67.6441 140.691C32.7651 132.934 5.98926 114.245 5.98926 74.4006C5.98926 59.2384 10.9216 44.0761 20.0818 32.0874Z" fill="#F04939"/>
<path d="M148.324 165.726C166.997 177.715 175.452 194.64 175.452 218.97C159.598 239.069 132.47 250 100.409 250C46.5054 250 8.10322 223.202 0 177.01H51.7901C58.4841 198.166 76.0998 208.039 100.057 208.039C128.595 208.392 147.972 192.877 148.324 165.726ZM47.21 81.8054C29.5944 71.2271 19.3773 52.1862 20.0819 31.7348C35.2314 11.9887 61.3026 0 93.0108 0C148.324 0 180.032 29.2666 188.136 70.1693H138.107C132.47 53.9492 118.73 41.2553 93.7155 41.2553C66.5873 41.6079 48.267 57.1227 47.21 81.8054Z" fill="#F37368"/>
</g>
<defs>
<clipPath id="clip0_45_51">
<rect width="189.913" height="250" fill="white"/>
</clipPath>
</defs>
</svg>
